# xmcd
#
# Track frame offsets: 
#        150
#        12421
#        24848
#        39006
#        53415
#        63642
#        71749
#        87231
#        104341
#        112103
#        123059
#        131499
#        144316
#        156579
#
# Disc length: 2300 seconds
#
# Revision: 0
# Processed by: cddbd v1.5.2PL0 Copyright (c) Steve Scherf et al.
# Submitted via: ExactAudioCopy v0.99pb5
#
DISCID=b508fa0e
DTITLE=Veikko Lavi - Varis Ja Valtion Varatyömies CD1
DYEAR=1986
DGENRE=Oldies
TTITLE0=Sukuvika - Suksi Ei Luista (Humppa)
TTITLE1=Ukkomiesten Puolesta  (Humppa)
TTITLE2=Katkerat Muistot (Tango)
TTITLE3=Ruusuja Lurjukselta (Tango)
TTITLE4=Pienen Pieni Kirje (Jenkka)
TTITLE5=Kotipihan Kivellä (Jenkka)
TTITLE6=Limperin Hilma (Valssi)
TTITLE7=Ankkalammen Valssi (Valssi)
TTITLE8=Väärä Vitonen (Polkka)
TTITLE9=Leivän Ylistys (Polkka)
TTITLE10=Muistoja Kotimaasta (Humppa)
TTITLE11=Tanssi Anjuska (Humppa)
TTITLE12=Alla Venäläisen Kuun (Valssi)
TTITLE13=Syysunelmia (Valssi)
EXTD=
EXTT0=
EXTT1=
EXTT2=
EXTT3=
EXTT4=
EXTT5=
EXTT6=
EXTT7=
EXTT8=
EXTT9=
EXTT10=
EXTT11=
EXTT12=
EXTT13=
PLAYORDER=
